<?xml version="1.0" encoding="utf-8"?>
<!-- Generator: Adobe Illustrator 26.0.1, SVG Export Plug-In . SVG Version: 6.00 Build 0)  -->
<svg version="1.1" xmlns="http://www.w3.org/2000/svg" xmlns:xlink="http://www.w3.org/1999/xlink" x="0px" y="0px"
	 viewBox="0 0 1920 1080" style="enable-background:new 0 0 1920 1080;" xml:space="preserve">
<style type="text/css">
	.st0{fill:none;stroke:#000000;stroke-miterlimit:10;}
	.st1{fill:#F9D949;}
</style>
<g id="Layer_2">
</g>
<g id="Layer_1">
	<path class="st0" d="M1907.5,1035"/>
	<g>
		<path class="st1" d="M302.12,302.79h58.73v117.68h114.81V302.79h81.81v312.13h-81.81V484.19H360.84v130.72h-46.14
			c-19.68,0-35.63-15.95-35.63-35.63V325.83C279.07,313.1,289.39,302.79,302.12,302.79z"/>
		<path class="st1" d="M943.59,458.07c0,87.28-54.32,162.29-161.75,162.29c-103.2,0-156.89-71.99-156.89-161.62
			c0-89.41,58.57-161.4,161.37-161.4C885.12,297.34,943.59,365.3,943.59,458.07z M754.97,451.7c0,58.1-139.35,105.96,30.21,105.96
			c153.01,0,16.24-54.51,16.24-105.96c0-56.14,162.57-91.77-18.01-91.77C605.3,359.93,754.97,395.1,754.97,451.7z"/>
		<path class="st1" d="M1090.46,495.33v77.87c0,23.04-18.68,41.72-41.72,41.72h-38.14V302.79h154.25
			c71.62,0,109.4,38.14,109.4,87.27c0,41.98-23.64,64.48-47.08,73.99c14.59,5.82,40.07,21.73,40.07,76.94v15.32
			c0,20.27,0.29,43.91,4.31,58.6l-65.62,0c-8.55,0-15.84-6.17-17.25-14.6c-2.19-13.1-2.81-30.7-2.81-54.11v-6.68
			c0-29.8-8.01-44.2-53.18-44.2H1090.46z M1090.46,434.78h55.81c32.92,0,45.76-12.65,45.76-35.85c0-22.55-14.66-35.39-45.13-35.39
			h-33.09c-12.9,0-23.35,10.46-23.35,23.35V434.78z"/>
		<path class="st1" d="M1417.37,550.28l-21.47,64.63h-80.92l108.05-312.13h85.29c11.52,0,21.81,7.22,25.74,18.05l93.27,257.38
			c6.47,17.85-6.75,36.7-25.74,36.7h-47.28l-22.8-64.63H1417.37z M1513.91,486.44c-20.33-59.78-33.36-100.26-40.9-128.51h-0.73
			c-7.41,30.24-21.69,76.83-38.2,128.51H1513.91z"/>
	</g>
</g>
</svg>
