<svg xmlns="http://www.w3.org/2000/svg" viewBox="0 0 1349.93 323.02"><defs><style>.cls-1{fill:none;stroke:#000;stroke-miterlimit:10;}.cls-2{fill:#f9d949;}</style></defs><g id="Layer_1" data-name="Layer 1"><path class="cls-1" d="M1907.5,1035" transform="translate(-279.07 -297.34)"/><path class="cls-2" d="M302.12,302.79h58.72V420.46H475.66V302.79h81.8V614.91h-81.8V484.19H360.84V614.91H314.71a35.64,35.64,0,0,1-35.64-35.63V325.83A23,23,0,0,1,302.12,302.79Z" transform="translate(-279.07 -297.34)"/><path class="cls-2" d="M943.59,458.07c0,87.28-54.32,162.29-161.75,162.29-103.2,0-156.89-72-156.89-161.62,0-89.41,58.57-161.4,161.37-161.4C885.12,297.34,943.59,365.3,943.59,458.07ZM755,451.7c0,58.1-139.35,106,30.21,106,153,0,16.24-54.51,16.24-106,0-56.14,162.57-91.77-18-91.77C605.3,359.93,755,395.1,755,451.7Z" transform="translate(-279.07 -297.34)"/><path class="cls-2" d="M1090.46,495.33V573.2a41.71,41.71,0,0,1-41.72,41.71H1010.6V302.79h154.25c71.62,0,109.41,38.14,109.41,87.27,0,42-23.64,64.48-47.08,74,14.59,5.82,40.07,21.73,40.07,76.94v15.33c0,20.26.29,43.91,4.31,58.59h-65.62a17.45,17.45,0,0,1-17.24-14.59c-2.2-13.1-2.81-30.7-2.81-54.11v-6.68c0-29.8-8-44.2-53.18-44.2Zm0-60.55h55.81c32.92,0,45.77-12.64,45.77-35.85,0-22.54-14.66-35.39-45.14-35.39h-33.09a23.36,23.36,0,0,0-23.35,23.36Z" transform="translate(-279.07 -297.34)"/><path class="cls-2" d="M1417.37,550.28l-21.46,64.63H1315l108-312.12h85.29a27.37,27.37,0,0,1,25.74,18l93.27,257.38a27.37,27.37,0,0,1-25.74,36.7h-47.28l-22.81-64.63Zm96.54-63.84c-20.33-59.77-33.35-100.26-40.9-128.51h-.73c-7.41,30.24-21.68,76.83-38.2,128.51Z" transform="translate(-279.07 -297.34)"/></g></svg>