<svg xmlns="http://www.w3.org/2000/svg" viewBox="0 0 790.58 790.58"><defs><style>.cls-1{fill:#f9d949;}.cls-2{fill:#5030e5;}.cls-3{fill:none;stroke:#f9d949;stroke-miterlimit:10;stroke-width:14px;}</style></defs><g id="Layer_1" data-name="Layer 1"><path class="cls-1" d="M1070.6,499.12V540a5.4,5.4,0,0,1-5.23,5.56H1008a15.65,15.65,0,0,1-10.24-3.75l-13.87-12a15.83,15.83,0,0,0-20.48,0l-13.87,12a15.67,15.67,0,0,1-10.24,3.75H880.87a5.4,5.4,0,0,1-5.22-5.56V499.12a5.4,5.4,0,0,1,5.22-5.56H938a15.65,15.65,0,0,1,10.24,3.75l14.26,12.35a15.83,15.83,0,0,0,20.48,0l14.25-12.35a15.65,15.65,0,0,1,10.24-3.75h57.93A5.4,5.4,0,0,1,1070.6,499.12Z" transform="translate(-577.83 -119.42)"/><path class="cls-1" d="M1181.07,778.8v.64a25.67,25.67,0,0,1-25.67,25.67H790.85a25.67,25.67,0,0,1-25.67-25.67v-.64a25.67,25.67,0,0,1,25.67-25.67h19.41a6.9,6.9,0,0,0,6.9-6.91l-17.58-86.73a70.83,70.83,0,0,1,2.36-37c10.37-30.3,33.13-77.28,46-77.28h14.34a6.91,6.91,0,0,1,6.91,6.91V746.22a6.9,6.9,0,0,0,6.9,6.91h194.14a6.9,6.9,0,0,0,6.9-6.91V552.09a6.91,6.91,0,0,1,6.91-6.91h14.35c13.08,0,35.23,48.92,44.69,79.11a70.64,70.64,0,0,1,2,33.74l-16,88.19a6.91,6.91,0,0,0,6.91,6.91h19.41A25.67,25.67,0,0,1,1181.07,778.8Z" transform="translate(-577.83 -119.42)"/><path class="cls-1" d="M1181.07,258.93v.65a25.67,25.67,0,0,1-25.67,25.67H1136a6.91,6.91,0,0,0-6.91,6.91l16.33,109.15a68.81,68.81,0,0,1-5.07,38c-10.48,23.73-30,53.89-42,53.89H1084a6.92,6.92,0,0,1-6.91-6.91V292.16a6.9,6.9,0,0,0-6.9-6.91H876.05a6.9,6.9,0,0,0-6.9,6.91V486.29a6.91,6.91,0,0,1-6.91,6.91H847.9c-11.79,0-32-29.26-43.21-52.83a68.17,68.17,0,0,1-5.53-40.57l18-107.64a6.9,6.9,0,0,0-6.9-6.91H790.85a25.67,25.67,0,0,1-25.67-25.67v-.65a25.67,25.67,0,0,1,25.67-25.67H1155.4A25.68,25.68,0,0,1,1181.07,258.93Z" transform="translate(-577.83 -119.42)"/><path class="cls-2" d="M973.12,441.06" transform="translate(-577.83 -119.42)"/><circle class="cls-3" cx="395.29" cy="395.29" r="388.29"/></g></svg>